# xmcd CD database file
#
# Track frame offsets:
#	150
#	28970
#	52288
#	74844
#	97435
#	124254
#	155868
#	195357
#	232980
#	278134
#
# Disc length: 4055 seconds
#
# Revision: 0
# Processed by: cddbd v1.5.1PL0 Copyright (c) Steve Scherf et al.
# Submitted via: CDex 1.51
#
DISCID=a20fd50a
DTITLE=Gene Harris - Instant Party
DYEAR=2004
DGENRE=Jazz
TTITLE0=Old Funky Gene's
TTITLE1=Blues for Jezebel
TTITLE2=Listen Here
TTITLE3=C.C. Rider
TTITLE4=Sidewinder
TTITLE5=Down Home Blues
TTITLE6=Uptown Sop
TTITLE7=Ode to Billy Joe
TTITLE8=Sweet Georgia Brown
TTITLE9=Put it Where You Want It
EXTD=YEAR: 2004
EXTT0=
EXTT1=
EXTT2=
EXTT3=
EXTT4=
EXTT5=
EXTT6=
EXTT7=
EXTT8=
EXTT9=
PLAYORDER=
